<?xml version="1.0" encoding="UTF-8"?>
<svg id="Layer_1" xmlns="http://www.w3.org/2000/svg" version="1.1" xmlns:svgjs="http://svgjs.dev/svgjs" xmlns:xlink="http://www.w3.org/1999/xlink" viewBox="0 0 1000 999">
  <!-- Generator: Adobe Illustrator 29.3.1, SVG Export Plug-In . SVG Version: 2.1.0 Build 151)  -->
  <defs>
    <style>
      .st0 {
        stroke: #000;
        stroke-miterlimit: 11.7;
        stroke-opacity: 0;
        stroke-width: 2.9px;
      }

      .st0, .st1 {
        fill: #ee3e38;
      }

      .st2 {
        fill: #fff;
      }

      .st3, .st4 {
        isolation: isolate;
      }

      .st5 {
        fill: #d3d3d3;
      }

      .st4 {
        font-family: PalatinoLinotype-Roman, 'Palatino Linotype';
        font-size: 518px;
      }

      .st6 {
        opacity: .3;
      }

      .st7 {
        display: none;
        fill: none;
      }
    </style>
  </defs>
  <g id="textblock">
    <g class="st6">
      <g id="tight-bounds">
        <g>
          <g>
            <path class="st0" d="M.5,499.3C.5,223.5,224,0,499.8,0s499.3,223.5,499.3,499.3-223.5,499.3-499.3,499.3S.5,775,.5,499.3ZM499.8,967.3c258.5,0,468.1-209.6,468.1-468.1S758.3,31.1,499.8,31.1,31.7,240.8,31.7,499.3s209.6,468.1,468.1,468.1h0Z"/>
            <circle class="st1" cx="499.8" cy="499.3" r="479.3"/>
          </g>
          <g id="textblocktransform">
            <path id="text-0" class="st2" d="M330.4,326.1h0c29.5,0,55,6,76.4,18,21.4,12.1,39.2,29.8,53.5,53.3h0l-34.1,26.5c-12.6-21.7-26.7-37.1-42.5-46.1s-34.9-13.4-57.3-13.4h0c-18,0-32.8,2.5-44.5,7.6s-20.3,11.8-25.8,20.1c-5.4,8.4-8.1,17.8-8.1,28.3h0c0,11.9,3.7,22.3,11.2,31.3,7.5,9,22.4,16.1,44.8,21.2h0l72.8,16.3c32.3,7.1,54.8,17.9,67.5,32.3,12.7,14.5,19,32.4,19,53.8h0c0,19-5.3,35.9-16,50.6-10.7,14.8-25.8,26.3-45.1,34.4-19.4,8.1-42.1,12.2-68.2,12.2h0c-24.4,0-45.9-3.3-64.4-10-18.5-6.6-34.4-15.5-47.7-26.7-13.2-11.2-24.1-23.8-32.6-37.7h0l35.7-29c6.5,12.9,14.8,24.3,25,34.1s22.5,17.5,37,22.9c14.4,5.4,30.9,8.1,49.6,8.1h0c17.3,0,32.4-2.1,45.1-6.4,12.7-4.2,22.4-10.5,29.2-18.8,6.8-8.3,10.2-18.4,10.2-30.3h0c0-10.9-3.6-20.6-10.7-29.3-7.1-8.6-20.5-15.1-40.2-19.6h0l-78.9-17.8c-20.7-4.8-37.4-11.3-50.1-19.7-12.8-8.3-21.9-18.1-27.5-29.5-5.6-11.3-8.5-23.6-8.5-36.9h0c0-18,5-34.6,15.1-49.7,10-15.1,24.4-27.2,43.3-36.4,18.8-9.2,41.1-13.8,66.9-13.8h-.1ZM548.9,331.2h127.3c34.3,0,61.8,8.8,82.5,26.5s31.1,41.6,31.1,71.8h0c0,30.2-10.5,53.7-31.4,70.5-20.8,16.8-48.4,25.3-82.7,25.3h0l-3.6,2.5h-82.5v139.5h-40.7v-336.1h0ZM589.7,489.6h86.1c24.1,0,42-5,53.7-15.1,11.7-10,17.6-25,17.6-45h0c0-20-5.9-35.1-17.6-45.1-11.7-10-29.6-15-53.7-15h-86.1v120.2h0ZM665.1,520.2l34.1-22.4,111,169.6h-48.4l-96.8-147.2h.1Z"/>
          </g>
        </g>
        <rect class="st7" x=".5" width="998.6" height="998.6"/>
      </g>
    </g>
  </g>
  <g id="circle">
    <circle class="st5" cx="500" cy="499.5" r="499.3"/>
  </g>
  <g id="Layer_3">
    <g class="st3">
      <text class="st4" transform="translate(107.9 671.1)"><tspan x="0" y="0">KH</tspan></text>
    </g>
  </g>
</svg>